HIERARCHY
ROOT Hips
{
	OFFSET 4.076200 -17.275196 43.303001
	CHANNELS 6 Xposition Yposition Zposition Zrotation Xrotation Yrotation
	JOINT Chest
	{
		OFFSET -0.689800 0.941999 5.341000
		CHANNELS 6 Xposition Yposition Zposition Zrotation Xrotation Yrotation
		JOINT Chest2
		{
			OFFSET 0.000000 0.000000 4.278900
			CHANNELS 6 Xposition Yposition Zposition Zrotation Xrotation Yrotation
			JOINT Neck
			{
				OFFSET 0.000000 0.000000 9.970299
				CHANNELS 6 Xposition Yposition Zposition Zrotation Xrotation Yrotation
				JOINT Head
				{
					OFFSET 0.000000 0.000002 2.173901
					CHANNELS 6 Xposition Yposition Zposition Zrotation Xrotation Yrotation
					End Site
					{
						OFFSET 0.000000 0.000000 6.488197
					}
				}
			}
			JOINT LeftCollar
			{
				OFFSET 2.472300 -0.285801 5.433899
				CHANNELS 6 Xposition Yposition Zposition Zrotation Xrotation Yrotation
				JOINT LeftShoulder
				{
					OFFSET 5.327700 0.000000 0.000000
					CHANNELS 6 Xposition Yposition Zposition Zrotation Xrotation Yrotation
					JOINT LeftElbow
					{
						OFFSET 0.000000 0.000000 -10.713001
						CHANNELS 6 Xposition Yposition Zposition Zrotation Xrotation Yrotation
						JOINT LeftWrist
						{
							OFFSET 0.000000 -0.000002 -13.396900
							CHANNELS 6 Xposition Yposition Zposition Zrotation Xrotation Yrotation
							End Site
							{
								OFFSET 0.000000 0.000000 -2.173901
							}
						}
					}
				}
			}
			JOINT RightCollar
			{
				OFFSET -2.589400 -1.358400 6.105000
				CHANNELS 6 Xposition Yposition Zposition Zrotation Xrotation Yrotation
				JOINT RightShoulder
				{
					OFFSET -4.580200 0.000000 0.000000
					CHANNELS 6 Xposition Yposition Zposition Zrotation Xrotation Yrotation
					JOINT RightElbow
					{
						OFFSET 0.000000 0.000000 -10.761101
						CHANNELS 6 Xposition Yposition Zposition Zrotation Xrotation Yrotation
						JOINT RightWrist
						{
							OFFSET 0.000000 -0.000002 -13.028500
							CHANNELS 6 Xposition Yposition Zposition Zrotation Xrotation Yrotation
							End Site
							{
								OFFSET 0.000000 0.000000 -2.173901
							}
						}
					}
				}
			}
		}
	}
	JOINT LeftHip
	{
		OFFSET 2.532500 0.486900 -2.489700
		CHANNELS 6 Xposition Yposition Zposition Zrotation Xrotation Yrotation
		JOINT LeftKnee
		{
			OFFSET 0.000000 -0.000002 -18.199398
			CHANNELS 6 Xposition Yposition Zposition Zrotation Xrotation Yrotation
			JOINT LeftAnkle
			{
				OFFSET 0.000000 -0.000002 -16.083900
				CHANNELS 6 Xposition Yposition Zposition Zrotation Xrotation Yrotation
				End Site
				{
					OFFSET 0.000000 -8.641399 0.000000
				}
			}
		}
	}
	JOINT RightHip
	{
		OFFSET -2.112700 -0.049900 -2.711102
		CHANNELS 6 Xposition Yposition Zposition Zrotation Xrotation Yrotation
		JOINT RightKnee
		{
			OFFSET 0.000000 -0.000002 -19.127298
			CHANNELS 6 Xposition Yposition Zposition Zrotation Xrotation Yrotation
			JOINT RightAnkle
			{
				OFFSET 0.000000 -0.000002 -14.874901
				CHANNELS 6 Xposition Yposition Zposition Zrotation Xrotation Yrotation
				End Site
				{
					OFFSET 0.000000 -8.198299 0.000000
				}
			}
		}
	}
}
MOTION
Frames: 7
Frame Time: 0.041667
39.332401 14.821903 43.721294 -335.876246 14.164818 2.664379 -0.689801 0.941999 5.340996 -25.838344 -7.931141 -1.149973 -0.000002 0.000001 4.278897 -6.784515 1.638246 -1.812473 -0.000004 -0.000002 9.970302 20.322557 -0.422275 -25.298648 -0.000003 -0.000001 2.173891 3.159001 2.693452 4.685319 2.472299 -0.285803 5.433896 -32.391329 16.889907 -18.057427 5.327694 -0.000004 -0.000002 1189.419305 -144.544643 1217.435649 0.000004 -0.000001 -10.713006 139.666877 -178.488252 180.285220 -0.000002 -0.000003 -13.396892 173.388218 -537.966627 216.383781 -2.589401 -1.358402 6.105000 0.188780 7.162563 8.227601 -4.580194 0.000002 0.000004 -661.215150 -35.552511 -568.185515 0.000001 -0.000002 -10.761097 47.830309 -136.202633 16.184560 -0.000003 -0.000004 -13.028503 1074.588417 -356.801842 1019.107610 2.532502 0.486897 -2.489707 -706.284181 -18.053851 2.321165 -0.000001 -0.000002 -18.199394 919.172762 515.450935 -174.726689 -0.000001 -0.000003 -16.083895 -171.987660 149.229566 155.836121 -2.112696 -0.049904 -2.711102 -40.981637 -38.874360 -41.171383 0.000001 0.000002 -19.127298 1145.199677 73.497289 -1098.385888 0.000000 -0.000001 -14.874899 174.575004 124.916838 193.503371
39.380901 14.872505 43.713299 -335.921763 14.143274 2.698460 -0.689793 0.942002 5.340996 -25.805459 -8.045588 -1.143487 0.000006 -0.000000 4.278896 -6.678504 1.646712 -1.803839 -0.000003 -0.000002 9.970298 20.046807 -0.109557 -25.408647 -0.000001 -0.000002 2.173890 3.134434 2.651490 4.666782 2.472289 -0.285803 5.433896 -32.141180 16.813231 -18.673532 5.327701 0.000003 -0.000002 1190.045388 -142.466736 1217.697381 0.000001 0.000001 -10.712988 138.932017 -177.313323 180.449718 -0.000000 -0.000005 -13.396906 173.919101 -537.741668 219.604611 -2.589404 -1.358402 6.105001 0.391378 7.305589 8.396186 -4.580194 0.000003 0.000001 -662.011823 -35.848316 -568.686140 -0.000002 -0.000005 -10.761107 47.526659 -136.195570 16.220994 -0.000006 0.000002 -13.028502 1073.828462 -356.988607 1018.814622 2.532501 0.486905 -2.489705 -705.629848 -18.243241 2.521689 0.000000 -0.000003 -18.199402 918.618916 515.045823 -174.747057 0.000001 -0.000005 -16.083900 -172.046646 149.381961 155.941374 -2.112695 -0.049905 -2.711104 -40.781106 -39.014556 -41.027696 -0.000001 -0.000001 -19.127291 1145.656043 73.460474 -1098.913616 0.000006 -0.000001 -14.874901 174.617092 124.914707 193.169675
39.430698 14.921803 43.704498 -335.970148 14.199891 2.891600 -0.689802 0.942001 5.341003 -25.785347 -8.066476 -1.373995 -0.000002 -0.000001 4.278901 -6.620383 1.652436 -1.783991 -0.000004 -0.000002 9.970292 19.804374 0.059325 -25.539870 -0.000004 0.000002 2.173900 3.146932 2.671616 4.620251 2.472292 -0.285804 5.433901 -31.499624 16.416343 -19.654727 5.327700 -0.000002 0.000001 1190.267451 -140.501130 1217.958568 0.000001 0.000006 -10.712990 138.357639 -175.785341 180.699293 -0.000008 -0.000001 -13.396901 174.266498 -537.332894 223.101845 -2.589402 -1.358403 6.105000 0.341458 7.018340 8.754355 -4.580199 0.000004 0.000006 -662.907780 -36.010738 -569.667283 -0.000003 -0.000005 -10.761100 46.732240 -136.092926 16.061659 -0.000006 0.000000 -13.028495 1072.695635 -357.044888 1018.618677 2.532499 0.486901 -2.489700 -705.023874 -18.563284 2.599564 0.000000 -0.000005 -18.199398 918.169872 514.629072 -174.862624 -0.000002 0.000001 -16.083904 -172.168961 149.512486 156.034838 -2.112703 -0.049904 -2.711098 -37.990274 -40.575961 -39.377612 -0.000012 -0.000000 -19.127298 1142.640487 73.348206 -1098.446322 0.000002 0.000001 -14.874899 174.709136 124.920485 192.827496
39.485493 14.966503 43.696098 -336.077136 14.097305 2.982116 -0.689801 0.942003 5.340992 -25.688692 -7.996838 -1.334327 -0.000003 0.000000 4.278906 -6.376172 1.638727 -1.752166 0.000004 -0.000004 9.970303 19.557043 0.179811 -25.891495 -0.000001 0.000002 2.173899 3.004136 2.569974 4.668555 2.472297 -0.285806 5.433901 -30.445674 15.633593 -21.050944 5.327699 -0.000007 0.000006 1189.713058 -138.960677 1218.414278 -0.000000 0.000002 -10.712999 138.264216 -174.103544 181.106386 0.000006 -0.000006 -13.396888 172.727452 -536.564143 224.341675 -2.589398 -1.358403 6.105007 -0.082045 6.340066 8.974882 -4.580202 0.000002 -0.000004 -663.916954 -35.859108 -571.078346 -0.000000 -0.000004 -10.761100 45.880228 -136.106600 15.987414 -0.000003 -0.000004 -13.028499 1071.720502 -357.063739 1018.326236 2.532503 0.486901 -2.489709 -704.539696 -18.712884 2.722264 -0.000000 -0.000006 -18.199402 917.467947 514.138610 -174.915202 -0.000002 -0.000003 -16.083902 -172.023860 149.799463 156.374572 -2.112700 -0.049903 -2.711103 -37.864212 -40.432237 -39.351073 -0.000004 0.000000 -19.127298 1142.110574 73.397349 -1097.799148 0.000002 -0.000001 -14.874900 174.876393 124.925335 192.686330
39.536800 15.013599 43.691303 -336.152924 14.143445 3.108507 -0.689795 0.942000 5.340985 -25.637863 -8.107757 -1.480952 0.000001 -0.000001 4.278904 -6.065990 1.620784 -1.703903 0.000002 0.000000 9.970305 19.125815 0.415463 -26.049921 -0.000001 0.000001 2.173890 2.950514 2.512710 4.728597 2.472300 -0.285800 5.433901 -30.106193 15.516856 -22.339674 5.327701 -0.000010 0.000000 1189.813817 -137.282499 1218.261610 0.000006 -0.000000 -10.712987 138.205285 -171.855182 181.715639 0.000000 -0.000002 -13.396895 170.563948 -535.787906 223.529907 -2.589398 -1.358400 6.105007 -0.188394 5.831009 9.328126 -4.580201 -0.000002 0.000001 -664.637184 -36.200303 -571.950807 0.000004 -0.000003 -10.761099 46.005098 -136.234448 16.187577 -0.000005 0.000004 -13.028502 1070.908420 -357.060488 1017.972596 2.532500 0.486898 -2.489719 -704.235069 -19.019483 2.805834 -0.000002 -0.000002 -18.199398 917.366095 513.681042 -175.074701 -0.000001 -0.000001 -16.083897 -172.130562 149.991705 156.458583 -2.112698 -0.049903 -2.711108 -37.928532 -40.496151 -39.481174 -0.000001 0.000002 -19.127300 1142.345860 73.451725 -1098.036401 -0.000001 -0.000001 -14.874898 174.833554 124.982066 192.668367
39.585201 15.060703 43.685097 -336.142788 14.204709 3.104852 -0.689795 0.942000 5.340994 -25.667981 -8.339556 -1.488052 0.000001 -0.000001 4.278901 -5.611238 1.682971 -1.637181 -0.000000 -0.000004 9.970302 18.592296 0.657203 -26.280159 -0.000002 0.000002 2.173884 2.903192 2.369498 4.693150 2.472296 -0.285803 5.433906 -29.827634 15.505738 -23.080789 5.327699 -0.000006 0.000007 1189.697649 -136.212537 1217.647876 0.000001 0.000000 -10.712987 138.291291 -169.369075 182.498174 0.000000 -0.000001 -13.396904 168.024156 -535.003363 222.300473 -2.589396 -1.358401 6.105000 -0.328217 5.376094 9.696736 -4.580204 -0.000005 0.000005 -665.888639 -36.636523 -573.086367 0.000001 -0.000006 -10.761099 45.847259 -136.472958 16.318929 -0.000006 0.000005 -13.028503 1070.156990 -356.847577 1017.757090 2.532506 0.486899 -2.489711 -703.756246 -19.353322 3.043768 -0.000003 -0.000006 -18.199402 916.546910 513.061517 -175.093020 -0.000002 -0.000003 -16.083900 -171.936502 150.355604 156.778222 -2.112693 -0.049904 -2.711101 -38.003377 -40.621300 -39.525564 -0.000003 0.000003 -19.127300 1142.673491 73.503894 -1098.321958 -0.000004 0.000001 -14.874901 174.763258 125.043142 192.659173
39.635403 15.113499 43.670395 -336.176201 14.277954 3.144891 -0.689797 0.942003 5.340997 -25.644403 -8.519590 -1.643949 -0.000002 -0.000002 4.278905 -5.063466 1.667371 -1.556932 -0.000004 0.000000 9.970295 18.010750 0.910426 -26.400399 -0.000002 -0.000003 2.173890 2.815295 2.132937 4.618550 2.472287 -0.285801 5.433900 -29.464237 15.614241 -23.826990 5.327700 0.000001 -0.000007 1188.960645 -135.474630 1216.230912 0.000003 0.000000 -10.713002 138.977943 -166.408284 183.504070 0.000000 -0.000007 -13.396898 166.009387 -534.133962 222.436216 -2.589406 -1.358402 6.105000 -0.535665 4.833449 10.069641 -4.580203 0.000000 -0.000001 -666.727386 -37.069373 -573.970958 0.000000 0.000005 -10.761101 46.197808 -136.775877 16.602754 -0.000014 -0.000003 -13.028502 1069.972301 -356.750397 1017.144340 2.532499 0.486905 -2.489705 -703.195897 -19.817193 3.259909 -0.000001 -0.000001 -18.199392 915.715812 512.285443 -175.133946 0.000001 0.000000 -16.083900 -171.705519 150.725118 157.010654 -2.112700 -0.049900 -2.711101 -38.058234 -40.718043 -39.634126 -0.000001 -0.000000 -19.127296 1142.221605 73.644090 -1097.809420 0.000003 -0.000000 -14.874895 174.846136 125.084273 192.805230
